<?xml version="1.0" standalone="no"?>
<!DOCTYPE svg PUBLIC "-//W3C//DTD SVG 20010904//EN"
 "http://www.w3.org/TR/2001/REC-SVG-20010904/DTD/svg10.dtd">
<svg version="1.0" xmlns="http://www.w3.org/2000/svg"
 width="512.000000pt" height="512.000000pt" viewBox="0 0 512.000000 512.000000"
 preserveAspectRatio="xMidYMid meet">
<metadata>
Created by potrace 1.11, written by Peter Selinger 2001-2013
</metadata>
<g transform="translate(0.000000,512.000000) scale(0.100000,-0.100000)"
fill="#000000" stroke="none">
<path d="M0 2560 l0 -2560 2560 0 2560 0 0 2560 0 2560 -2560 0 -2560 0 0
-2560z m1850 2119 c52 -5 111 -11 130 -14 51 -5 213 -33 305 -51 44 -9 89 -18
100 -19 36 -6 309 -77 330 -86 11 -5 65 -23 120 -40 55 -17 109 -34 120 -39
11 -4 79 -31 150 -60 72 -29 180 -76 240 -105 61 -28 133 -62 160 -75 28 -13
73 -38 100 -55 28 -18 69 -40 90 -50 22 -10 59 -31 82 -47 23 -15 46 -28 52
-28 6 0 11 -4 11 -10 0 -5 5 -10 11 -10 6 0 25 -11 43 -25 18 -14 38 -25 44
-25 7 0 12 -4 12 -10 0 -5 11 -12 25 -16 14 -3 25 -10 25 -14 0 -4 19 -20 43
-36 23 -15 47 -33 52 -39 30 -32 140 -105 158 -105 12 0 69 12 127 26 58 14
168 39 245 56 77 16 150 32 163 35 l22 5 0 -169 0 -169 -92 -17 c-51 -9 -122
-25 -157 -37 -35 -11 -72 -20 -82 -20 -10 0 -87 -16 -170 -35 -178 -41 -195
-42 -204 -15 -3 11 -27 34 -53 52 -26 18 -59 43 -73 57 -58 56 -88 81 -98 81
-5 0 -16 6 -23 13 -33 30 -178 137 -187 137 -5 0 -11 4 -13 8 -4 10 -226 152
-238 152 -5 0 -10 3 -12 8 -2 4 -21 17 -43 29 -82 47 -482 241 -540 263 -33
13 -80 32 -104 42 -79 35 -456 156 -552 178 -52 12 -101 24 -109 28 -8 3 -22
7 -30 9 -8 1 -44 10 -80 18 -82 20 -217 46 -251 49 -14 1 -30 5 -35 9 -18 11
-463 63 -619 73 -33 2 -165 6 -294 9 -129 2 -236 7 -238 9 -2 2 16 7 39 11
122 20 296 47 318 50 14 1 45 5 70 9 157 25 697 28 910 5z m-500 -809 c245
-12 427 -27 555 -46 55 -8 134 -19 176 -24 181 -24 634 -109 694 -130 16 -7
41 -14 55 -16 67 -13 416 -114 470 -137 14 -6 27 -11 30 -12 3 -1 12 -4 20 -8
8 -3 40 -13 70 -23 30 -9 88 -32 128 -50 41 -19 77 -34 82 -34 5 0 38 -13 73
-30 36 -16 67 -30 70 -30 3 0 31 -15 64 -33 32 -18 78 -41 103 -52 44 -18 125
-63 204 -113 38 -23 43 -24 110 -14 39 6 94 16 121 22 28 6 113 22 190 35 77
14 160 29 185 35 25 5 48 9 53 10 4 0 7 -73 7 -163 l0 -163 -137 -22 c-76 -12
-187 -31 -248 -42 -243 -43 -215 -42 -286 -4 -35 18 -75 39 -89 45 -14 6 -41
20 -60 30 -73 40 -387 192 -435 211 -27 11 -81 34 -120 53 -38 18 -99 46 -135
61 -140 58 -156 65 -192 84 -20 11 -43 20 -51 20 -8 0 -48 14 -88 31 -41 17
-112 44 -159 61 -47 16 -89 33 -94 38 -6 6 -18 10 -28 10 -10 0 -26 4 -36 10
-21 12 -316 110 -331 110 -5 0 -22 5 -38 12 -15 6 -32 12 -38 14 -24 6 -204
56 -250 70 -40 11 -229 54 -305 69 -8 2 -33 8 -55 13 -42 12 -200 38 -400 68
-94 14 -183 18 -410 19 -159 0 -345 -2 -412 -5 -67 -2 -125 -2 -128 2 -6 6 75
15 195 21 140 8 695 6 870 -3z m358 -545 c18 -2 51 -16 75 -32 23 -15 54 -34
70 -42 37 -19 147 -138 171 -184 11 -20 23 -37 28 -37 5 0 6 -4 3 -10 -3 -5
-1 -10 5 -10 6 0 8 -4 5 -10 -3 -5 -1 -10 4 -10 6 0 11 -7 11 -15 0 -18 14
-21 184 -35 76 -7 148 -14 160 -16 12 -2 58 -7 104 -11 74 -5 84 -4 96 13 8
10 12 22 10 25 -2 4 3 12 11 19 8 7 15 18 15 26 0 7 6 17 13 21 7 4 23 28 35
53 12 25 35 60 50 78 l28 34 124 -41 c69 -22 179 -56 245 -76 66 -20 193 -60
283 -88 l162 -51 0 -84 c0 -46 4 -91 10 -101 5 -10 26 -22 47 -26 124 -23 450
-150 519 -202 34 -25 63 -28 145 -13 30 5 68 12 84 15 44 8 313 53 363 60 l43
7 -3 -138 c-3 -129 -4 -138 -23 -140 -48 -5 -379 -56 -470 -73 -96 -17 -101
-17 -130 0 -16 10 -64 36 -105 57 -41 21 -88 46 -105 55 -46 25 -164 77 -174
77 -5 0 -51 17 -102 39 -338 139 -978 306 -1444 375 -22 4 -47 9 -55 11 -24 8
-42 10 -525 69 -298 37 -553 57 -910 71 -71 3 -152 7 -180 10 -27 3 -90 8
-139 11 -50 3 -135 14 -190 24 l-101 18 65 1 c36 0 214 -4 395 -9 l330 -9 42
47 c23 26 42 53 43 60 0 6 5 12 10 12 6 0 15 11 21 23 9 21 65 57 182 119 65
35 310 52 465 33z m380 -700 c-1 -20 -5 -38 -10 -41 -5 -3 -6 -14 -3 -25 4
-10 2 -19 -3 -19 -5 0 -15 -27 -22 -60 -7 -33 -17 -63 -21 -66 -4 -2 -6 -11
-3 -18 3 -8 0 -17 -5 -21 -6 -3 -9 -11 -5 -16 3 -5 1 -16 -6 -24 -8 -10 -8
-19 0 -34 9 -17 21 -21 63 -22 29 -1 99 -4 157 -8 113 -7 124 -4 136 43 3 14
10 26 16 26 5 0 6 9 3 20 -3 11 -2 20 4 20 5 0 13 15 17 33 10 39 9 39 17 57
3 8 13 38 23 65 10 28 18 51 19 53 3 4 258 -56 285 -67 14 -5 37 -12 51 -15
22 -5 28 -12 31 -43 3 -21 1 -58 -4 -83 -4 -25 -7 -76 -5 -115 l2 -70 105 -17
c58 -9 117 -17 133 -17 l27 -1 0 135 c0 157 -14 145 137 116 96 -19 336 -72
340 -75 0 0 9 -62 18 -136 9 -74 20 -139 24 -143 5 -5 71 -22 147 -38 164 -34
250 -53 322 -73 51 -14 196 -12 670 7 l62 2 0 -122 0 -121 -27 -6 c-59 -12
-539 -37 -582 -31 -26 4 -71 13 -101 22 -30 8 -64 16 -75 19 -18 4 -269 68
-305 79 -8 2 -71 18 -140 35 -69 17 -134 35 -145 40 -30 13 -148 38 -259 56
-55 8 -103 17 -106 19 -3 2 -94 18 -201 34 -107 17 -202 36 -211 41 -10 6 -28
10 -41 10 -35 0 -388 58 -423 70 -33 11 -141 21 -507 45 -125 9 -238 19 -250
24 -12 4 -56 8 -97 10 -77 3 -1029 117 -1037 124 -10 11 302 19 725 19 l467
-1 20 42 c11 23 23 45 28 48 4 3 9 17 10 30 0 13 5 27 10 30 5 4 10 18 10 33
0 14 3 26 8 26 5 0 9 4 9 10 0 5 11 34 25 65 l26 55 224 0 224 0 -1 -35z
m-302 -786 c3 -6 2 -14 -4 -18 -5 -3 -17 -22 -26 -41 -23 -51 -58 -111 -83
-146 -11 -16 -33 -51 -46 -77 l-25 -47 246 1 c136 1 292 4 346 8 l99 6 -2 143
-2 142 249 0 250 0 7 -40 c4 -22 11 -42 15 -45 5 -3 7 -12 3 -20 -3 -9 0 -22
7 -30 10 -12 39 -15 136 -15 l123 0 11 40 c6 23 8 50 4 62 -5 18 -3 20 17 14
13 -3 83 -22 154 -41 212 -57 337 -94 350 -105 7 -6 15 -29 19 -53 3 -23 9
-58 12 -77 3 -19 5 -43 5 -52 0 -21 22 -24 274 -38 280 -16 337 -20 370 -25
46 -7 448 -35 502 -35 10 0 13 -27 13 -105 l0 -105 -507 0 c-280 0 -571 5
-648 10 -254 18 -280 20 -325 26 -25 3 -67 7 -95 8 -101 7 -512 36 -570 41
-33 2 -91 7 -130 10 -66 4 -305 24 -370 30 -16 2 -169 10 -340 19 -170 8 -337
18 -370 22 -33 3 -78 8 -100 10 -683 68 -740 75 -763 99 l-24 22 54 7 c29 4
89 9 133 11 44 3 130 7 190 11 112 6 155 17 155 41 0 7 5 13 10 13 6 0 13 8
17 18 7 20 123 175 135 180 4 2 8 8 8 12 0 5 14 24 30 42 17 18 30 38 30 45 0
6 8 17 18 22 24 15 429 14 438 0z m434 -875 l0 -215 203 6 c111 3 260 10 331
16 72 5 168 9 215 9 84 0 125 10 102 24 -7 5 -11 50 -11 127 l0 119 303 -2
302 -3 3 -92 c2 -55 -2 -101 -8 -114 -7 -11 -10 -23 -7 -25 3 -3 181 -1 397 4
426 10 374 13 690 -43 72 -12 70 -9 70 -96 l0 -79 -2030 0 c-1853 0 -2031 1
-2037 16 -9 23 15 34 74 34 87 0 83 -9 83 176 l0 164 388 2 387 3 3 93 3 92
269 0 270 0 0 -216z"/>
</g>
</svg>
